<svg xmlns="http://www.w3.org/2000/svg" viewBox="0 0 64 64">
  <!-- 배경 원 -->
  <circle cx="32" cy="32" r="30" fill="#f7fafc" stroke="#e2e8f0" stroke-width="2"/>
  
  <!-- 저울 -->
  <g transform="translate(32, 32)">
    <!-- 중앙 기둥 -->
    <rect x="-2" y="-16" width="4" height="24" fill="#4a5568"/>
    
    <!-- 베이스 -->
    <path d="M -12 8 L 12 8 L 8 14 L -8 14 Z" fill="#2d3748"/>
    
    <!-- 상단 가로대 -->
    <rect x="-20" y="-18" width="40" height="3" rx="1.5" fill="#4a5568"/>
    
    <!-- 왼쪽 줄 -->
    <rect x="-16" y="-18" width="1" height="12" fill="#718096"/>
    
    <!-- 오른쪽 줄 -->
    <rect x="15" y="-18" width="1" height="12" fill="#718096"/>
    
    <!-- 왼쪽 접시 -->
    <g transform="translate(-15.5, -6)">
      <ellipse cx="0" cy="0" rx="8" ry="1.5" fill="#3182ce"/>
      <path d="M -8 0 L -7 3 L 7 3 L 8 0" fill="#2c5282"/>
    </g>
    
    <!-- 오른쪽 접시 -->
    <g transform="translate(15.5, -6)">
      <ellipse cx="0" cy="0" rx="8" ry="1.5" fill="#3182ce"/>
      <path d="M -8 0 L -7 3 L 7 3 L 8 0" fill="#2c5282"/>
    </g>
    
    <!-- 중심점 -->
    <circle cx="0" cy="-16" r="2" fill="#e53e3e"/>
  </g>
</svg>